<svg xmlns="http://www.w3.org/2000/svg" viewBox="0 0 300 250" width="300" height="250">
<rect width="300" height="250" fill="#f0f4f8" rx="8"/>
<rect x="0" y="0" width="300" height="160" fill="#87CEEB"/><circle cx="260" cy="40" r="25" fill="#FFD700"/><rect x="0" y="180" width="300" height="70" fill="#6B8E23"/><rect x="0" y="210" width="300" height="40" fill="#8B6914"/><circle cx="80" cy="118" r="12" fill="#FDBCB4"/>
<ellipse cx="80" cy="110" rx="14" ry="6" fill="#FFD700"/>
<rect x="70" y="130" width="20" height="25" rx="3" fill="#2563EB"/>
<rect x="72" y="155" width="7" height="23" fill="#1E3A5F"/>
<rect x="81" y="155" width="7" height="23" fill="#1E3A5F"/>
<rect x="71" y="178" width="8" height="5" rx="2" fill="#333"/>
<rect x="81" y="178" width="8" height="5" rx="2" fill="#333"/>
<line x1="90" y1="133" x2="105" y2="148" stroke="#2563EB" stroke-width="4" stroke-linecap="round"/><rect x="140" y="100" width="100" height="70" rx="3" fill="#D2B48C" stroke="#8B6914" stroke-width="2"/>
<rect x="145" y="105" width="20" height="30" fill="#8B6914"/>
<rect x="170" y="135" width="30" height="20" fill="#999"/>
<text x="150" y="240" text-anchor="middle" font-size="11" fill="#333" font-family="Arial">축사 수리</text>
</svg>