<svg xmlns="http://www.w3.org/2000/svg" viewBox="0 0 300 250" width="300" height="250">
<rect width="300" height="250" fill="#f0f4f8" rx="8"/>
<rect x="0" y="0" width="300" height="170" fill="#E8E0D0"/><rect x="0" y="170" width="300" height="80" fill="#C4A882"/><line x1="0" y1="170" x2="300" y2="170" stroke="#999" stroke-width="2"/><rect x="30" y="140" width="240" height="10" fill="#999"/>
<circle cx="40" cy="145" r="8" fill="#666"/>
<circle cx="260" cy="145" r="8" fill="#666"/>
<rect x="80" y="125" width="25" height="15" fill="#C19A6B" stroke="#8B6914"/>
<rect x="130" y="125" width="25" height="15" fill="#C19A6B" stroke="#8B6914"/>
<rect x="180" y="125" width="25" height="15" fill="#C19A6B" stroke="#8B6914"/><circle cx="150" cy="115" r="12" fill="#FDBCB4"/>

<rect x="140" y="127" width="20" height="25" rx="3" fill="#2563EB"/>
<rect x="142" y="152" width="7" height="23" fill="#1E3A5F"/>
<rect x="151" y="152" width="7" height="23" fill="#1E3A5F"/>
<rect x="141" y="175" width="8" height="5" rx="2" fill="#333"/>
<rect x="151" y="175" width="8" height="5" rx="2" fill="#333"/>
<line x1="160" y1="130" x2="175" y2="145" stroke="#2563EB" stroke-width="4" stroke-linecap="round"/><rect x="168" y="118" width="10" height="15" fill="white" stroke="#2563EB"/>
<text x="173" y="130" text-anchor="middle" font-size="8" fill="#2563EB" font-family="Arial">✓</text>
<text x="150" y="240" text-anchor="middle" font-size="11" fill="#333" font-family="Arial">불량 검사</text>
</svg>