<svg xmlns="http://www.w3.org/2000/svg" viewBox="0 0 300 250" width="300" height="250">
<rect width="300" height="250" fill="#f0f4f8" rx="8"/>
<rect x="0" y="0" width="300" height="170" fill="#FFF5E6"/><rect x="0" y="170" width="300" height="80" fill="#E8D8C0"/><line x1="0" y1="170" x2="300" y2="170" stroke="#999" stroke-width="2"/><ellipse cx="150" cy="130" rx="60" ry="40" fill="white" stroke="#CCC" stroke-width="2"/><rect x="125" y="105" width="50" height="35" rx="5" fill="#FFD700" stroke="#FF6600" stroke-width="2"/>
<path d="M130,115 Q140,125 150,115 Q160,125 170,115" stroke="#C19A6B" stroke-width="2" fill="none"/>
<path d="M130,125 Q140,135 150,125 Q160,135 170,125" stroke="#C19A6B" stroke-width="2" fill="none"/>
<path d="M145,105 Q147,90 149,105" stroke="#CCC" stroke-width="1" fill="none"/>
<path d="M155,105 Q157,90 159,105" stroke="#CCC" stroke-width="1" fill="none"/><text x="150" y="240" text-anchor="middle" font-size="11" fill="#333" font-family="Arial">라면</text>
</svg>