<svg xmlns="http://www.w3.org/2000/svg" viewBox="0 0 300 250" width="300" height="250">
<rect width="300" height="250" fill="#f0f4f8" rx="8"/>
<rect x="0" y="0" width="300" height="170" fill="#E8E0D0"/><rect x="0" y="170" width="300" height="80" fill="#C4A882"/><line x1="0" y1="170" x2="300" y2="170" stroke="#999" stroke-width="2"/><circle cx="100" cy="115" r="12" fill="#FDBCB4"/>

<rect x="90" y="127" width="20" height="25" rx="3" fill="#2563EB"/>
<rect x="92" y="152" width="7" height="23" fill="#1E3A5F"/>
<rect x="101" y="152" width="7" height="23" fill="#1E3A5F"/>
<rect x="91" y="175" width="8" height="5" rx="2" fill="#333"/>
<rect x="101" y="175" width="8" height="5" rx="2" fill="#333"/>
<line x1="110" y1="130" x2="125" y2="145" stroke="#2563EB" stroke-width="4" stroke-linecap="round"/><rect x="130" y="120" width="60" height="45" fill="white" stroke="#333" stroke-width="1.5"/>
<text x="160" y="135" text-anchor="middle" font-size="7" fill="#1a3a6b" font-weight="bold" font-family="Arial">작업 일지</text>
<line x1="135" y1="140" x2="185" y2="140" stroke="#CCC"/>
<line x1="135" y1="147" x2="175" y2="147" stroke="#CCC"/>
<line x1="135" y1="154" x2="180" y2="154" stroke="#CCC"/>
<line x1="120" y1="148" x2="138" y2="132" stroke="#2563EB" stroke-width="2"/>
<text x="150" y="240" text-anchor="middle" font-size="11" fill="#333" font-family="Arial">작업 일지 작성</text>
</svg>