<svg xmlns="http://www.w3.org/2000/svg" viewBox="0 0 300 250" width="300" height="250">
<rect width="300" height="250" fill="#f0f4f8" rx="8"/>
<rect x="0" y="0" width="300" height="160" fill="#87CEEB"/><circle cx="260" cy="40" r="25" fill="#FFD700"/><rect x="0" y="180" width="300" height="70" fill="#6B8E23"/><rect x="0" y="210" width="300" height="40" fill="#8B6914"/><circle cx="90" cy="115" r="12" fill="#FDBCB4"/>

<rect x="80" y="127" width="20" height="25" rx="3" fill="#4CAF50"/>
<rect x="82" y="152" width="7" height="23" fill="#1E3A5F"/>
<rect x="91" y="152" width="7" height="23" fill="#1E3A5F"/>
<rect x="81" y="175" width="8" height="5" rx="2" fill="#333"/>
<rect x="91" y="175" width="8" height="5" rx="2" fill="#333"/>
<line x1="100" y1="130" x2="115" y2="145" stroke="#4CAF50" stroke-width="4" stroke-linecap="round"/><line x1="105" y1="140" x2="140" y2="120" stroke="#666" stroke-width="3"/>
<path d="M135,115 Q145,105 155,115 L150,120 Q145,118 140,120 Z" fill="#4682B4"/>
<path d="M135,120 L140,145 L130,145 Z" fill="#4682B4" opacity="0.4"/>
<path d="M140,120 L148,145 L138,145 Z" fill="#4682B4" opacity="0.4"/>
<text x="150" y="240" text-anchor="middle" font-size="11" fill="#333" font-family="Arial">물 주기</text>
</svg>