<svg xmlns="http://www.w3.org/2000/svg" viewBox="0 0 300 250" width="300" height="250">
<rect width="300" height="250" fill="#f0f4f8" rx="8"/>
<rect x="0" y="0" width="300" height="160" fill="#87CEEB"/><circle cx="260" cy="40" r="25" fill="#FFD700"/><rect x="0" y="180" width="300" height="70" fill="#6B8E23"/><rect x="0" y="210" width="300" height="40" fill="#8B6914"/><rect x="90" y="140" width="60" height="30" rx="3" fill="#CC0000"/>
<rect x="135" y="125" width="20" height="25" rx="2" fill="#CC0000"/>
<rect x="138" y="128" width="14" height="15" fill="#ADD8E6" rx="1"/>
<circle cx="105" cy="175" r="18" fill="#333" stroke="#666" stroke-width="3"/>
<circle cx="105" cy="175" r="6" fill="#999"/>
<circle cx="145" cy="170" r="12" fill="#333" stroke="#666" stroke-width="3"/>
<circle cx="145" cy="170" r="4" fill="#999"/>
<rect x="148" y="120" width="3" height="12" fill="#333"/><path d="M80,210 Q100,200 120,210 Q140,200 160,210 Q180,200 200,210" stroke="#6B3A0A" stroke-width="3" fill="none"/>
<text x="150" y="240" text-anchor="middle" font-size="11" fill="#333" font-family="Arial">트랙터 경운</text>
</svg>