<svg xmlns="http://www.w3.org/2000/svg" viewBox="0 0 300 250" width="300" height="250">
<rect width="300" height="250" fill="#f0f4f8" rx="8"/>
<rect x="0" y="0" width="300" height="160" fill="#87CEEB"/><circle cx="260" cy="40" r="25" fill="#FFD700"/><rect x="0" y="180" width="300" height="70" fill="#6B8E23"/><rect x="0" y="210" width="300" height="40" fill="#8B6914"/><rect x="120" y="100" width="8" height="60" fill="#5C3A00"/>
<circle cx="124" cy="85" r="20" fill="#228B22"/>
<circle cx="140" cy="80" r="15" fill="#228B22"/>
<circle cx="110" cy="90" r="12" fill="#228B22"/><circle cx="80" cy="115" r="12" fill="#FDBCB4"/>

<rect x="70" y="127" width="20" height="25" rx="3" fill="#FF6347"/>
<rect x="72" y="152" width="7" height="23" fill="#1E3A5F"/>
<rect x="81" y="152" width="7" height="23" fill="#1E3A5F"/>
<rect x="71" y="175" width="8" height="5" rx="2" fill="#333"/>
<rect x="81" y="175" width="8" height="5" rx="2" fill="#333"/>
<line x1="90" y1="130" x2="105" y2="145" stroke="#FF6347" stroke-width="4" stroke-linecap="round"/><circle cx="105" cy="145" r="6" fill="#CC0000"/>
<text x="150" y="240" text-anchor="middle" font-size="11" fill="#333" font-family="Arial">사과 따기</text>
</svg>