<svg xmlns="http://www.w3.org/2000/svg" viewBox="0 0 300 250" width="300" height="250">
<rect width="300" height="250" fill="#f0f4f8" rx="8"/>
<rect x="0" y="0" width="300" height="160" fill="#87CEEB"/><circle cx="260" cy="40" r="25" fill="#FFD700"/><rect x="0" y="180" width="300" height="70" fill="#6B8E23"/><rect x="0" y="210" width="300" height="40" fill="#8B6914"/><circle cx="80" cy="115" r="12" fill="#FDBCB4"/>

<rect x="70" y="127" width="20" height="25" rx="3" fill="#4CAF50"/>
<rect x="72" y="152" width="7" height="23" fill="#1E3A5F"/>
<rect x="81" y="152" width="7" height="23" fill="#1E3A5F"/>
<rect x="71" y="175" width="8" height="5" rx="2" fill="#333"/>
<rect x="81" y="175" width="8" height="5" rx="2" fill="#333"/>
<line x1="90" y1="130" x2="105" y2="145" stroke="#4CAF50" stroke-width="4" stroke-linecap="round"/><rect x="95" y="130" width="15" height="30" rx="3" fill="#666"/>
<line x1="102" y1="130" x2="140" y2="100" stroke="#666" stroke-width="3"/>
<path d="M130,100 L145,90 L150,95 L140,105 Z" fill="#999"/>
<path d="M140,105 Q155,110 170,140 Q160,145 145,120" fill="#90EE90" opacity="0.5"/>
<path d="M142,108 Q160,100 175,130 Q165,135 150,115" fill="#90EE90" opacity="0.4"/>
<text x="150" y="240" text-anchor="middle" font-size="11" fill="#333" font-family="Arial">농약 살포</text>
</svg>