<svg xmlns="http://www.w3.org/2000/svg" viewBox="0 0 300 250" width="300" height="250">
<rect width="300" height="250" fill="#f0f4f8" rx="8"/>
<rect x="0" y="0" width="300" height="160" fill="#87CEEB"/><circle cx="260" cy="40" r="25" fill="#FFD700"/><rect x="0" y="180" width="300" height="70" fill="#6B8E23"/><rect x="0" y="210" width="300" height="40" fill="#8B6914"/><ellipse cx="170" cy="155" rx="35" ry="20" fill="white" stroke="#333" stroke-width="1.5"/>
<ellipse cx="178" cy="158" rx="10" ry="8" fill="#8B4513"/>
<circle cx="200" cy="147" r="10" fill="white" stroke="#333" stroke-width="1.5"/>
<circle cx="204" cy="145" r="2" fill="#333"/>
<rect x="145" y="170" width="5" height="15" fill="#333"/>
<rect x="160" y="170" width="5" height="15" fill="#333"/>
<rect x="180" y="170" width="5" height="15" fill="#333"/>
<rect x="192" y="170" width="5" height="15" fill="#333"/><circle cx="70" cy="118" r="12" fill="#FDBCB4"/>

<rect x="60" y="130" width="20" height="25" rx="3" fill="#2563EB"/>
<rect x="62" y="155" width="7" height="23" fill="#1E3A5F"/>
<rect x="71" y="155" width="7" height="23" fill="#1E3A5F"/>
<rect x="61" y="178" width="8" height="5" rx="2" fill="#333"/>
<rect x="71" y="178" width="8" height="5" rx="2" fill="#333"/>
<line x1="80" y1="133" x2="95" y2="148" stroke="#2563EB" stroke-width="4" stroke-linecap="round"/><rect x="90" y="150" width="25" height="18" rx="3" fill="#D2691E" stroke="#8B4513"/>
<rect x="95" y="145" width="15" height="8" fill="#FFD700"/>
<text x="150" y="240" text-anchor="middle" font-size="11" fill="#333" font-family="Arial">소 사료 주기</text>
</svg>