<svg xmlns="http://www.w3.org/2000/svg" viewBox="0 0 300 250" width="300" height="250">
<rect width="300" height="250" fill="#f0f4f8" rx="8"/>
<rect x="0" y="0" width="300" height="160" fill="#87CEEB"/><circle cx="260" cy="40" r="25" fill="#FFD700"/><rect x="0" y="180" width="300" height="70" fill="#6B8E23"/><rect x="0" y="210" width="300" height="40" fill="#8B6914"/><ellipse cx="180" cy="155" rx="35" ry="20" fill="white" stroke="#333" stroke-width="1.5"/>
<ellipse cx="188" cy="158" rx="10" ry="8" fill="#8B4513"/>
<circle cx="210" cy="147" r="10" fill="white" stroke="#333" stroke-width="1.5"/>
<circle cx="214" cy="145" r="2" fill="#333"/>
<rect x="155" y="170" width="5" height="15" fill="#333"/>
<rect x="170" y="170" width="5" height="15" fill="#333"/>
<rect x="190" y="170" width="5" height="15" fill="#333"/>
<rect x="202" y="170" width="5" height="15" fill="#333"/><circle cx="60" cy="118" r="12" fill="#FDBCB4"/>

<rect x="50" y="130" width="20" height="25" rx="3" fill="#2563EB"/>
<rect x="52" y="155" width="7" height="23" fill="#1E3A5F"/>
<rect x="61" y="155" width="7" height="23" fill="#1E3A5F"/>
<rect x="51" y="178" width="8" height="5" rx="2" fill="#333"/>
<rect x="61" y="178" width="8" height="5" rx="2" fill="#333"/>
<line x1="70" y1="133" x2="85" y2="148" stroke="#2563EB" stroke-width="4" stroke-linecap="round"/><line x1="75" y1="148" x2="150" y2="150" stroke="#8B4513" stroke-width="3"/>
<path d="M170,175 L200,175 L210,165 L220,175" stroke="#333" stroke-width="2" fill="none"/>
<text x="150" y="240" text-anchor="middle" font-size="11" fill="#333" font-family="Arial">소 이동</text>
</svg>