<svg xmlns="http://www.w3.org/2000/svg" viewBox="0 0 300 250" width="300" height="250">
<rect width="300" height="250" fill="#f0f4f8" rx="8"/>
<rect x="0" y="0" width="300" height="160" fill="#87CEEB"/><circle cx="260" cy="40" r="25" fill="#FFD700"/><rect x="0" y="180" width="300" height="70" fill="#6B8E23"/><rect x="0" y="210" width="300" height="40" fill="#8B6914"/><ellipse cx="150" cy="150" rx="35" ry="20" fill="white" stroke="#333" stroke-width="1.5"/>
<ellipse cx="158" cy="153" rx="10" ry="8" fill="#8B4513"/>
<circle cx="180" cy="142" r="10" fill="white" stroke="#333" stroke-width="1.5"/>
<circle cx="184" cy="140" r="2" fill="#333"/>
<rect x="125" y="165" width="5" height="15" fill="#333"/>
<rect x="140" y="165" width="5" height="15" fill="#333"/>
<rect x="160" y="165" width="5" height="15" fill="#333"/>
<rect x="172" y="165" width="5" height="15" fill="#333"/><circle cx="70" cy="115" r="12" fill="#FDBCB4"/>

<rect x="60" y="127" width="20" height="25" rx="3" fill="#2563EB"/>
<rect x="62" y="152" width="7" height="23" fill="#1E3A5F"/>
<rect x="71" y="152" width="7" height="23" fill="#1E3A5F"/>
<rect x="61" y="175" width="8" height="5" rx="2" fill="#333"/>
<rect x="71" y="175" width="8" height="5" rx="2" fill="#333"/>
<line x1="80" y1="130" x2="95" y2="145" stroke="#2563EB" stroke-width="4" stroke-linecap="round"/><line x1="85" y1="145" x2="120" y2="155" stroke="#4682B4" stroke-width="3"/>
<path d="M115,150 Q125,145 130,155 Q120,160 115,155 Z" fill="#4682B4" opacity="0.4"/>
<text x="150" y="240" text-anchor="middle" font-size="11" fill="#333" font-family="Arial">소 세척</text>
</svg>