<svg xmlns="http://www.w3.org/2000/svg" viewBox="0 0 300 250" width="300" height="250">
<rect width="300" height="250" fill="#f0f4f8" rx="8"/>
<rect x="0" y="0" width="300" height="100" fill="#87CEEB"/><rect x="0" y="100" width="300" height="150" fill="#1E90FF"/><path d="M0,110 Q15,105 30,110 Q45,115 60,110" stroke="white" stroke-width="1" fill="none" opacity="0.5"/><path d="M60,110 Q75,105 90,110 Q105,115 120,110" stroke="white" stroke-width="1" fill="none" opacity="0.5"/><path d="M120,110 Q135,105 150,110 Q165,115 180,110" stroke="white" stroke-width="1" fill="none" opacity="0.5"/><path d="M180,110 Q195,105 210,110 Q225,115 240,110" stroke="white" stroke-width="1" fill="none" opacity="0.5"/><path d="M240,110 Q255,105 270,110 Q285,115 300,110" stroke="white" stroke-width="1" fill="none" opacity="0.5"/><circle cx="80" cy="35" r="12" fill="#FDBCB4"/>

<rect x="70" y="47" width="20" height="25" rx="3" fill="#FF6347"/>
<rect x="72" y="72" width="7" height="23" fill="#1E3A5F"/>
<rect x="81" y="72" width="7" height="23" fill="#1E3A5F"/>
<rect x="71" y="95" width="8" height="5" rx="2" fill="#333"/>
<rect x="81" y="95" width="8" height="5" rx="2" fill="#333"/>
<line x1="90" y1="50" x2="105" y2="65" stroke="#FF6347" stroke-width="4" stroke-linecap="round"/><line x1="95" y1="60" x2="180" y2="30" stroke="#666" stroke-width="2"/>
<line x1="180" y1="30" x2="185" y2="120" stroke="#999" stroke-width="1"/><ellipse cx="185" cy="130" rx="20" ry="10" fill="#4682B4"/>
<polygon points="165,130 153,120 153,140" fill="#4682B4"/>
<circle cx="195" cy="127" r="2" fill="white"/>
<circle cx="196" cy="127" r="1" fill="#333"/><text x="150" y="240" text-anchor="middle" font-size="11" fill="white" font-family="Arial">낚시하기</text>
</svg>