<svg xmlns="http://www.w3.org/2000/svg" viewBox="0 0 300 250" width="300" height="250">
<rect width="300" height="250" fill="#f0f4f8" rx="8"/>
<rect x="0" y="0" width="300" height="100" fill="#87CEEB"/><rect x="0" y="100" width="300" height="150" fill="#1E90FF"/><path d="M0,110 Q15,105 30,110 Q45,115 60,110" stroke="white" stroke-width="1" fill="none" opacity="0.5"/><path d="M60,110 Q75,105 90,110 Q105,115 120,110" stroke="white" stroke-width="1" fill="none" opacity="0.5"/><path d="M120,110 Q135,105 150,110 Q165,115 180,110" stroke="white" stroke-width="1" fill="none" opacity="0.5"/><path d="M180,110 Q195,105 210,110 Q225,115 240,110" stroke="white" stroke-width="1" fill="none" opacity="0.5"/><path d="M240,110 Q255,105 270,110 Q285,115 300,110" stroke="white" stroke-width="1" fill="none" opacity="0.5"/><rect x="80" y="50" width="100" height="25" rx="5" fill="#8B4513"/>
<rect x="85" y="30" width="8" height="30" fill="#8B4513"/>
<rect x="175" y="30" width="8" height="30" fill="#8B4513"/><circle cx="60" cy="35" r="12" fill="#FDBCB4"/>

<rect x="50" y="47" width="20" height="25" rx="3" fill="#FFD700"/>
<rect x="52" y="72" width="7" height="23" fill="#1E3A5F"/>
<rect x="61" y="72" width="7" height="23" fill="#1E3A5F"/>
<rect x="51" y="95" width="8" height="5" rx="2" fill="#333"/>
<rect x="61" y="95" width="8" height="5" rx="2" fill="#333"/>
<line x1="70" y1="50" x2="85" y2="65" stroke="#FFD700" stroke-width="4" stroke-linecap="round"/><path d="M100,80 Q120,130 140,80 Q160,130 180,80 Q200,130 220,80" stroke="#999" stroke-width="2" fill="none"/>
<path d="M110,95 L130,120 L170,120 L190,95 L180,110 L120,110 Z" stroke="#666" stroke-width="1" fill="none"/><ellipse cx="140" cy="110" rx="14.0" ry="7.0" fill="#4682B4"/>
<polygon points="126.0,110 117.6,103.0 117.6,117.0" fill="#4682B4"/>
<circle cx="147.0" cy="107.9" r="1.4" fill="white"/>
<circle cx="147.7" cy="107.9" r="0.7" fill="#333"/><ellipse cx="160" cy="115" rx="12.0" ry="6.0" fill="#4682B4"/>
<polygon points="148.0,115 140.8,109.0 140.8,121.0" fill="#4682B4"/>
<circle cx="166.0" cy="113.2" r="1.2" fill="white"/>
<circle cx="166.6" cy="113.2" r="0.6" fill="#333"/><text x="150" y="240" text-anchor="middle" font-size="11" fill="white" font-family="Arial">그물로 어획</text>
</svg>