<svg xmlns="http://www.w3.org/2000/svg" viewBox="0 0 300 250" width="300" height="250">
<rect width="300" height="250" fill="#f0f4f8" rx="8"/>
<rect x="0" y="0" width="300" height="100" fill="#87CEEB"/><rect x="0" y="100" width="300" height="150" fill="#1E90FF"/><path d="M0,110 Q15,105 30,110 Q45,115 60,110" stroke="white" stroke-width="1" fill="none" opacity="0.5"/><path d="M60,110 Q75,105 90,110 Q105,115 120,110" stroke="white" stroke-width="1" fill="none" opacity="0.5"/><path d="M120,110 Q135,105 150,110 Q165,115 180,110" stroke="white" stroke-width="1" fill="none" opacity="0.5"/><path d="M180,110 Q195,105 210,110 Q225,115 240,110" stroke="white" stroke-width="1" fill="none" opacity="0.5"/><path d="M240,110 Q255,105 270,110 Q285,115 300,110" stroke="white" stroke-width="1" fill="none" opacity="0.5"/><rect x="120" y="100" width="50" height="40" rx="5" fill="#8B4513" stroke="#5C3A00"/>
<rect x="125" y="90" width="40" height="15" rx="3" fill="#8B4513"/>
<line x1="145" y1="80" x2="145" y2="65" stroke="#8B4513" stroke-width="2"/>
<circle cx="145" cy="60" r="6" fill="#FF6600"/><circle cx="70" cy="35" r="12" fill="#FDBCB4"/>

<rect x="60" y="47" width="20" height="25" rx="3" fill="#2563EB"/>
<rect x="62" y="72" width="7" height="23" fill="#1E3A5F"/>
<rect x="71" y="72" width="7" height="23" fill="#1E3A5F"/>
<rect x="61" y="95" width="8" height="5" rx="2" fill="#333"/>
<rect x="71" y="95" width="8" height="5" rx="2" fill="#333"/>
<line x1="80" y1="50" x2="95" y2="65" stroke="#2563EB" stroke-width="4" stroke-linecap="round"/><text x="150" y="240" text-anchor="middle" font-size="11" fill="white" font-family="Arial">통발 설치</text>
</svg>