<svg xmlns="http://www.w3.org/2000/svg" viewBox="0 0 300 250" width="300" height="250">
<rect width="300" height="250" fill="#f0f4f8" rx="8"/>
<rect x="0" y="0" width="300" height="170" fill="#E8E0D0"/><rect x="0" y="170" width="300" height="80" fill="#C4A882"/><line x1="0" y1="170" x2="300" y2="170" stroke="#999" stroke-width="2"/><circle cx="120" cy="110" r="12" fill="#FDBCB4"/>
<rect x="105" y="100" width="30" height="25" rx="5" fill="#333"/>
<rect x="112" y="108" width="16" height="8" fill="#1a1a1a" rx="2"/>
<rect x="110" y="122" width="20" height="30" rx="3" fill="#666"/>
<line x1="130" y1="135" x2="170" y2="140" stroke="#666" stroke-width="4" stroke-linecap="round"/>
<circle cx="175" cy="142" r="6" fill="#FFD700"/>
<path d="M170,135 L180,120 L185,125 L175,140" fill="#FF4500" opacity="0.7"/>
<path d="M172,132 L178,115 L182,118 L176,136" fill="#FFD700" opacity="0.5"/>
<rect x="110" y="152" width="8" height="25" fill="#1E3A5F"/>
<rect x="122" y="152" width="8" height="25" fill="#1E3A5F"/>
<text x="150" y="240" text-anchor="middle" font-size="11" fill="#333" font-family="Arial">용접 작업</text>
</svg>