<svg xmlns="http://www.w3.org/2000/svg" viewBox="0 0 300 250" width="300" height="250">
<rect width="300" height="250" fill="#f0f4f8" rx="8"/>
<rect x="0" y="0" width="300" height="170" fill="#E8E0D0"/><rect x="0" y="170" width="300" height="80" fill="#C4A882"/><line x1="0" y1="170" x2="300" y2="170" stroke="#999" stroke-width="2"/><circle cx="100" cy="115" r="12" fill="#FDBCB4"/>
<ellipse cx="100" cy="107" rx="14" ry="6" fill="#FFD700"/>
<rect x="90" y="127" width="20" height="25" rx="3" fill="#2563EB"/>
<rect x="92" y="152" width="7" height="23" fill="#1E3A5F"/>
<rect x="101" y="152" width="7" height="23" fill="#1E3A5F"/>
<rect x="91" y="175" width="8" height="5" rx="2" fill="#333"/>
<rect x="101" y="175" width="8" height="5" rx="2" fill="#333"/>
<line x1="110" y1="130" x2="125" y2="145" stroke="#2563EB" stroke-width="4" stroke-linecap="round"/><rect x="128" y="120" width="8" height="45" fill="#666"/>
<rect x="125" y="115" width="14" height="10" rx="3" fill="#FFD700"/>
<circle cx="132" cy="170" r="3" fill="#CCC"/>
<text x="150" y="240" text-anchor="middle" font-size="11" fill="#333" font-family="Arial">드릴 작업</text>
</svg>