<svg xmlns="http://www.w3.org/2000/svg" viewBox="0 0 300 250" width="300" height="250">
<rect width="300" height="250" fill="#f0f4f8" rx="8"/>
<rect x="0" y="0" width="300" height="170" fill="#E8E0D0"/><rect x="0" y="170" width="300" height="80" fill="#C4A882"/><line x1="0" y1="170" x2="300" y2="170" stroke="#999" stroke-width="2"/><circle cx="90" cy="115" r="12" fill="#FDBCB4"/>

<rect x="80" y="127" width="20" height="25" rx="3" fill="#2563EB"/>
<rect x="82" y="152" width="7" height="23" fill="#1E3A5F"/>
<rect x="91" y="152" width="7" height="23" fill="#1E3A5F"/>
<rect x="81" y="175" width="8" height="5" rx="2" fill="#333"/>
<rect x="91" y="175" width="8" height="5" rx="2" fill="#333"/>
<line x1="100" y1="130" x2="115" y2="145" stroke="#2563EB" stroke-width="4" stroke-linecap="round"/><path d="M150,80 Q140,50 150,30 Q155,50 165,40 Q160,60 170,80 Q160,90 150,90 Q140,90 130,80 Z" fill="#FF4500" opacity="0.9"/>
<path d="M148,85 Q143,65 150,50 Q155,65 160,55 Q157,75 163,85 Q155,90 148,90 Z" fill="#FFD700" opacity="0.8"/><rect x="110" y="135" width="12" height="35" rx="3" fill="#CC0000"/>
<rect x="105" y="130" width="22" height="8" rx="2" fill="#CC0000"/>
<line x1="120" y1="135" x2="145" y2="115" stroke="#CCC" stroke-width="2"/>
<path d="M140,115 Q150,100 160,110 Q155,115 148,118" fill="white" opacity="0.6"/>
<text x="150" y="240" text-anchor="middle" font-size="11" fill="#333" font-family="Arial">소화기 사용</text>
</svg>