<svg xmlns="http://www.w3.org/2000/svg" viewBox="0 0 300 250" width="300" height="250">
<rect width="300" height="250" fill="#f0f4f8" rx="8"/>
<rect x="0" y="0" width="300" height="170" fill="#DDD"/><rect x="0" y="170" width="300" height="80" fill="#BBB"/><line x1="0" y1="170" x2="300" y2="170" stroke="#999" stroke-width="2"/><rect x="180" y="60" width="50" height="100" fill="#2E8B57"/>
<text x="205" y="115" text-anchor="middle" font-size="12" fill="white" font-weight="bold" font-family="Arial">EXIT</text>
<path d="M190,80 L200,70 L210,80 L205,80 L205,95 L195,95 L195,80 Z" fill="white"/><circle cx="100" cy="115" r="12" fill="#FDBCB4"/>

<rect x="90" y="127" width="20" height="25" rx="3" fill="#FF6347"/>
<rect x="92" y="152" width="7" height="23" fill="#1E3A5F"/>
<rect x="101" y="152" width="7" height="23" fill="#1E3A5F"/>
<rect x="91" y="175" width="8" height="5" rx="2" fill="#333"/>
<rect x="101" y="175" width="8" height="5" rx="2" fill="#333"/>
<line x1="110" y1="130" x2="125" y2="145" stroke="#FF6347" stroke-width="4" stroke-linecap="round"/><path d="M120,165 L170,145" stroke="#333" stroke-width="2" stroke-dasharray="5"/>
<text x="150" y="240" text-anchor="middle" font-size="11" fill="#333" font-family="Arial">비상구 대피</text>
</svg>