<svg xmlns="http://www.w3.org/2000/svg" viewBox="0 0 300 250" width="300" height="250">
<rect width="300" height="250" fill="#f0f4f8" rx="8"/>
<rect x="0" y="0" width="300" height="170" fill="#E8E0D0"/><rect x="0" y="170" width="300" height="80" fill="#C4A882"/><line x1="0" y1="170" x2="300" y2="170" stroke="#999" stroke-width="2"/><circle cx="130" cy="115" r="12" fill="#FDBCB4"/>

<rect x="120" y="127" width="20" height="25" rx="3" fill="#2563EB"/>
<rect x="122" y="152" width="7" height="23" fill="#1E3A5F"/>
<rect x="131" y="152" width="7" height="23" fill="#1E3A5F"/>
<rect x="121" y="175" width="8" height="5" rx="2" fill="#333"/>
<rect x="131" y="175" width="8" height="5" rx="2" fill="#333"/>
<line x1="140" y1="130" x2="155" y2="145" stroke="#2563EB" stroke-width="4" stroke-linecap="round"/><rect x="160" y="80" width="40" height="100" fill="#999"/>
<rect x="162" y="90" width="36" height="5" fill="#CCC"/>
<rect x="162" y="110" width="36" height="5" fill="#CCC"/>
<rect x="162" y="130" width="36" height="5" fill="#CCC"/>
<rect x="162" y="150" width="36" height="5" fill="#CCC"/>
<text x="150" y="240" text-anchor="middle" font-size="11" fill="#333" font-family="Arial">계단 오르기</text>
</svg>