<svg xmlns="http://www.w3.org/2000/svg" viewBox="0 0 300 250" width="300" height="250">
<rect width="300" height="250" fill="#f0f4f8" rx="8"/>
<rect x="0" y="0" width="300" height="170" fill="#E8E0D0"/><rect x="0" y="170" width="300" height="80" fill="#C4A882"/><line x1="0" y1="170" x2="300" y2="170" stroke="#999" stroke-width="2"/><line x1="150" y1="40" x2="150" y2="170" stroke="#999" stroke-width="4"/>
<line x1="130" y1="60" x2="170" y2="60" stroke="#999" stroke-width="3"/>
<line x1="130" y1="90" x2="170" y2="90" stroke="#999" stroke-width="3"/>
<line x1="130" y1="120" x2="170" y2="120" stroke="#999" stroke-width="3"/>
<line x1="130" y1="150" x2="170" y2="150" stroke="#999" stroke-width="3"/><circle cx="145" cy="70" r="12" fill="#FDBCB4"/>

<rect x="135" y="82" width="20" height="25" rx="3" fill="#FF6347"/>
<rect x="137" y="107" width="7" height="23" fill="#1E3A5F"/>
<rect x="146" y="107" width="7" height="23" fill="#1E3A5F"/>
<rect x="136" y="130" width="8" height="5" rx="2" fill="#333"/>
<rect x="146" y="130" width="8" height="5" rx="2" fill="#333"/>
<line x1="155" y1="85" x2="170" y2="100" stroke="#FF6347" stroke-width="4" stroke-linecap="round"/><text x="150" y="240" text-anchor="middle" font-size="11" fill="#333" font-family="Arial">사다리 내려오기</text>
</svg>