<svg xmlns="http://www.w3.org/2000/svg" viewBox="0 0 300 250" width="300" height="250">
<rect width="300" height="250" fill="#f0f4f8" rx="8"/>
<rect x="0" y="0" width="300" height="160" fill="#87CEEB"/><circle cx="260" cy="40" r="25" fill="#FFD700"/><rect x="0" y="180" width="300" height="70" fill="#C4A882"/><circle cx="100" cy="118" r="12" fill="#FDBCB4"/>
<ellipse cx="100" cy="110" rx="14" ry="6" fill="#FFD700"/>
<rect x="90" y="130" width="20" height="25" rx="3" fill="#FF6347"/>
<rect x="92" y="155" width="7" height="23" fill="#1E3A5F"/>
<rect x="101" y="155" width="7" height="23" fill="#1E3A5F"/>
<rect x="91" y="178" width="8" height="5" rx="2" fill="#333"/>
<rect x="101" y="178" width="8" height="5" rx="2" fill="#333"/>
<line x1="110" y1="133" x2="125" y2="148" stroke="#FF6347" stroke-width="4" stroke-linecap="round"/><line x1="140" y1="140" x2="200" y2="140" stroke="#555" stroke-width="4"/>
<line x1="150" y1="140" x2="180" y2="170" stroke="#555" stroke-width="4"/>
<line x1="170" y1="140" x2="200" y2="170" stroke="#555" stroke-width="4"/>
<line x1="140" y1="170" x2="200" y2="170" stroke="#555" stroke-width="4"/>
<circle cx="165" cy="155" r="6" fill="#999"/>
<text x="150" y="240" text-anchor="middle" font-size="11" fill="#333" font-family="Arial">철근 묶기</text>
</svg>