<svg xmlns="http://www.w3.org/2000/svg" viewBox="0 0 300 250" width="300" height="250">
<rect width="300" height="250" fill="#f0f4f8" rx="8"/>
<rect x="0" y="0" width="300" height="170" fill="#E8E0D0"/><rect x="0" y="170" width="300" height="80" fill="#C4A882"/><line x1="0" y1="170" x2="300" y2="170" stroke="#999" stroke-width="2"/><circle cx="100" cy="115" r="12" fill="#FDBCB4"/>

<rect x="90" y="127" width="20" height="25" rx="3" fill="#FFF"/>
<rect x="92" y="152" width="7" height="23" fill="#1E3A5F"/>
<rect x="101" y="152" width="7" height="23" fill="#1E3A5F"/>
<rect x="91" y="175" width="8" height="5" rx="2" fill="#333"/>
<rect x="101" y="175" width="8" height="5" rx="2" fill="#333"/>
<line x1="110" y1="130" x2="125" y2="145" stroke="#FFF" stroke-width="4" stroke-linecap="round"/><rect x="145" y="60" width="80" height="110" fill="#ADD8E6" stroke="#87CEEB" stroke-width="2"/>
<rect x="130" y="140" width="10" height="30" fill="#999"/>
<circle cx="135" cy="155" r="12" fill="#ADD8E6" opacity="0.6"/>
<text x="150" y="240" text-anchor="middle" font-size="11" fill="#333" font-family="Arial">벽 페인트</text>
</svg>