<svg xmlns="http://www.w3.org/2000/svg" viewBox="0 0 300 250" width="300" height="250">
<rect width="300" height="250" fill="#f0f4f8" rx="8"/>
<rect x="0" y="0" width="300" height="160" fill="#87CEEB"/><circle cx="260" cy="40" r="25" fill="#FFD700"/><rect x="0" y="180" width="300" height="70" fill="#C4A882"/><rect x="60" y="60" width="8" height="130" fill="#999"/>
<rect x="220" y="60" width="8" height="130" fill="#999"/>
<rect x="60" y="80" width="170" height="8" fill="#8B4513"/>
<rect x="60" y="130" width="170" height="8" fill="#8B4513"/><circle cx="150" cy="118" r="12" fill="#FDBCB4"/>
<ellipse cx="150" cy="110" rx="14" ry="6" fill="#FFD700"/>
<rect x="140" y="130" width="20" height="25" rx="3" fill="#FF6347"/>
<rect x="142" y="155" width="7" height="23" fill="#1E3A5F"/>
<rect x="151" y="155" width="7" height="23" fill="#1E3A5F"/>
<rect x="141" y="178" width="8" height="5" rx="2" fill="#333"/>
<rect x="151" y="178" width="8" height="5" rx="2" fill="#333"/>
<line x1="160" y1="133" x2="175" y2="148" stroke="#FF6347" stroke-width="4" stroke-linecap="round"/><text x="150" y="240" text-anchor="middle" font-size="11" fill="#333" font-family="Arial">비계 조립</text>
</svg>