<svg xmlns="http://www.w3.org/2000/svg" viewBox="0 0 300 250" width="300" height="250">
<rect width="300" height="250" fill="#f0f4f8" rx="8"/>
<rect x="0" y="0" width="300" height="170" fill="#E0E0E0"/><rect x="0" y="170" width="300" height="80" fill="#CCC"/><line x1="0" y1="170" x2="300" y2="170" stroke="#999" stroke-width="2"/><circle cx="100" cy="115" r="12" fill="#FDBCB4"/>

<rect x="90" y="127" width="20" height="25" rx="3" fill="#2563EB"/>
<rect x="92" y="152" width="7" height="23" fill="#1E3A5F"/>
<rect x="101" y="152" width="7" height="23" fill="#1E3A5F"/>
<rect x="91" y="175" width="8" height="5" rx="2" fill="#333"/>
<rect x="101" y="175" width="8" height="5" rx="2" fill="#333"/>
<line x1="110" y1="130" x2="125" y2="145" stroke="#2563EB" stroke-width="4" stroke-linecap="round"/><rect x="155" y="70" width="70" height="100" rx="5" fill="#1a3a6b"/>
<rect x="162" y="80" width="56" height="35" fill="#4CAF50"/>
<text x="190" y="105" text-anchor="middle" font-size="10" fill="white" font-family="Arial">ATM</text>
<rect x="170" y="125" width="40" height="5" rx="2" fill="#CCC"/>
<rect x="170" y="135" width="40" height="5" rx="2" fill="#333"/>
<rect x="185" y="147" width="20" height="8" fill="#FFD700"/>
<text x="150" y="240" text-anchor="middle" font-size="11" fill="#333" font-family="Arial">ATM 인출</text>
</svg>